<svg width="1280" height="720" xmlns="http://www.w3.org/2000/svg" xmlns:xlink="http://www.w3.org/1999/xlink" overflow="hidden"><defs><linearGradient x1="640" y1="39.9999" x2="640" y2="680" gradientUnits="userSpaceOnUse" spreadMethod="reflect" id="fill0"><stop offset="0" stop-color="#F5F9FB"/><stop offset="0.00406504" stop-color="#F4F8FA"/><stop offset="0.00813008" stop-color="#F4F8FA"/><stop offset="0.0121951" stop-color="#F4F8FA"/><stop offset="0.0162602" stop-color="#F4F8FA"/><stop offset="0.0203252" stop-color="#F4F8FA"/><stop offset="0.0243902" stop-color="#F4F8FA"/><stop offset="0.0284553" stop-color="#F4F8FA"/><stop offset="0.0325203" stop-color="#F4F8FA"/><stop offset="0.0365854" stop-color="#F4F8FA"/><stop offset="0.0406504" stop-color="#F4F8FA"/><stop offset="0.0447154" stop-color="#F4F8FA"/><stop offset="0.0487805" stop-color="#F4F8FA"/><stop offset="0.0528455" stop-color="#F4F8FA"/><stop offset="0.0569106" stop-color="#F4F8F9"/><stop offset="0.0609756" stop-color="#F4F8F9"/><stop offset="0.0650406" stop-color="#F4F8F9"/><stop offset="0.0691057" stop-color="#F4F8F9"/><stop offset="0.0731707" stop-color="#F4F7F9"/><stop offset="0.0772358" stop-color="#F4F7F8"/><stop offset="0.0813008" stop-color="#F4F7F8"/><stop offset="0.0853659" stop-color="#F4F7F8"/><stop offset="0.0894309" stop-color="#F4F7F8"/><stop offset="0.0934959" stop-color="#F4F7F8"/><stop offset="0.097561" stop-color="#F4F7F7"/><stop offset="0.101626" stop-color="#F4F6F7"/><stop offset="0.105691" stop-color="#F4F6F7"/><stop offset="0.109756" stop-color="#F4F6F7"/><stop offset="0.113821" stop-color="#F4F6F6"/><stop offset="0.117886" stop-color="#F4F6F6"/><stop offset="0.121951" stop-color="#F4F6F6"/><stop offset="0.126016" stop-color="#F4F5F5"/><stop offset="0.130081" stop-color="#F4F5F5"/><stop offset="0.134146" stop-color="#F4F5F5"/><stop offset="0.138211" stop-color="#F4F5F4"/><stop offset="0.142276" stop-color="#F3F5F4"/><stop offset="0.146341" stop-color="#F3F4F4"/><stop offset="0.150407" stop-color="#F3F4F3"/><stop offset="0.154472" stop-color="#F3F4F3"/><stop offset="0.158537" stop-color="#F3F4F3"/><stop offset="0.162602" stop-color="#F3F4F2"/><stop offset="0.166667" stop-color="#F3F3F2"/><stop offset="0.170732" stop-color="#F3F3F2"/><stop offset="0.174797" stop-color="#F3F3F1"/><stop offset="0.178862" stop-color="#F3F3F1"/><stop offset="0.182927" stop-color="#F3F2F0"/><stop offset="0.186992" stop-color="#F3F2F0"/><stop offset="0.191057" stop-color="#F3F2EF"/><stop offset="0.195122" stop-color="#F3F2EF"/><stop offset="0.199187" stop-color="#F3F1EF"/><stop offset="0.203252" stop-color="#F2F1EE"/><stop offset="0.207317" stop-color="#F2F1EE"/><stop offset="0.211382" stop-color="#F2F1ED"/><stop offset="0.215447" stop-color="#F2F0ED"/><stop offset="0.219512" stop-color="#F2F0EC"/><stop offset="0.223577" stop-color="#F2F0EC"/><stop offset="0.227642" stop-color="#F2EFEB"/><stop offset="0.231707" stop-color="#F2EFEB"/><stop offset="0.235772" stop-color="#F2EFEA"/><stop offset="0.239837" stop-color="#F2EEEA"/><stop offset="0.243902" stop-color="#F2EEE9"/><stop offset="0.247967" stop-color="#F2EEE8"/><stop offset="0.252033" stop-color="#F1EDE8"/><stop offset="0.256098" stop-color="#F1EDE7"/><stop offset="0.260163" stop-color="#F1EDE7"/><stop offset="0.264228" stop-color="#F1ECE6"/><stop offset="0.268293" stop-color="#F1ECE6"/><stop offset="0.272358" stop-color="#F1ECE5"/><stop offset="0.276423" stop-color="#F1EBE4"/><stop offset="0.280488" stop-color="#F1EBE4"/><stop offset="0.284553" stop-color="#F1EBE3"/><stop offset="0.288618" stop-color="#F1EAE2"/><stop offset="0.292683" stop-color="#F1EAE2"/><stop offset="0.296748" stop-color="#F0E9E1"/><stop offset="0.300813" stop-color="#F0E9E1"/><stop offset="0.304878" stop-color="#F0E9E0"/><stop offset="0.308943" stop-color="#F0E8DF"/><stop offset="0.313008" stop-color="#F0E8DF"/><stop offset="0.317073" stop-color="#F0E7DE"/><stop offset="0.321138" stop-color="#F0E7DD"/><stop offset="0.325203" stop-color="#F0E7DC"/><stop offset="0.329268" stop-color="#F0E6DC"/><stop offset="0.333333" stop-color="#EFE6DB"/><stop offset="0.337398" stop-color="#EFE5DA"/><stop offset="0.341463" stop-color="#EFE5DA"/><stop offset="0.345528" stop-color="#EFE4D9"/><stop offset="0.349593" stop-color="#EFE4D8"/><stop offset="0.353659" stop-color="#EFE4D7"/><stop offset="0.357724" stop-color="#EFE3D7"/><stop offset="0.361789" stop-color="#EFE3D6"/><stop offset="0.365854" stop-color="#EEE2D5"/><stop offset="0.369919" stop-color="#EEE2D4"/><stop offset="0.373984" stop-color="#EEE1D3"/><stop offset="0.378049" stop-color="#EEE1D3"/><stop offset="0.382114" stop-color="#EEE0D2"/><stop offset="0.386179" stop-color="#EEE0D1"/><stop offset="0.390244" stop-color="#EEDFD0"/><stop offset="0.394309" stop-color="#EEDFCF"/><stop offset="0.398374" stop-color="#EDDECF"/><stop offset="0.402439" stop-color="#EDDECE"/><stop offset="0.406504" stop-color="#EDDDCD"/><stop offset="0.410569" stop-color="#EDDDCC"/><stop offset="0.414634" stop-color="#EDDCCB"/><stop offset="0.418699" stop-color="#EDDCCA"/><stop offset="0.422764" stop-color="#EDDBC9"/><stop offset="0.426829" stop-color="#ECDBC8"/><stop offset="0.430894" stop-color="#ECDAC8"/><stop offset="0.434959" stop-color="#ECDAC7"/><stop offset="0.439024" stop-color="#ECD9C6"/><stop offset="0.443089" stop-color="#ECD9C5"/><stop offset="0.447154" stop-color="#ECD8C4"/><stop offset="0.451219" stop-color="#ECD7C3"/><stop offset="0.455285" stop-color="#EBD7C2"/><stop offset="0.45935" stop-color="#EBD6C1"/><stop offset="0.463415" stop-color="#EBD6C0"/><stop offset="0.46748" stop-color="#EBD5BF"/><stop offset="0.471545" stop-color="#EBD5BE"/><stop offset="0.47561" stop-color="#EBD4BD"/><stop offset="0.479675" stop-color="#EAD3BC"/><stop offset="0.48374" stop-color="#EAD3BB"/><stop offset="0.487805" stop-color="#EAD2BA"/><stop offset="0.49187" stop-color="#EAD2B9"/><stop offset="0.495935" stop-color="#EAD1B8"/><stop offset="0.5" stop-color="#EAD0B7"/><stop offset="0.504065" stop-color="#E9D0B6"/><stop offset="0.50813" stop-color="#E9CFB5"/><stop offset="0.512195" stop-color="#E9CFB4"/><stop offset="0.51626" stop-color="#E9CEB3"/><stop offset="0.520325" stop-color="#E9CDB2"/><stop offset="0.52439" stop-color="#E9CDB1"/><stop offset="0.528455" stop-color="#E8CCB0"/><stop offset="0.53252" stop-color="#E8CBAF"/><stop offset="0.536585" stop-color="#E8CBAE"/><stop offset="0.54065" stop-color="#E8CAAD"/><stop offset="0.544715" stop-color="#E8C9AB"/><stop offset="0.548781" stop-color="#E8C9AA"/><stop offset="0.552846" stop-color="#E7C8A9"/><stop offset="0.556911" stop-color="#E7C7A8"/><stop offset="0.560976" stop-color="#E7C7A7"/><stop offset="0.565041" stop-color="#E7C6A6"/><stop offset="0.569106" stop-color="#E7C5A5"/><stop offset="0.573171" stop-color="#E6C5A4"/><stop offset="0.577236" stop-color="#E6C4A2"/><stop offset="0.581301" stop-color="#E6C3A1"/><stop offset="0.585366" stop-color="#E6C3A0"/><stop offset="0.589431" stop-color="#E6C29F"/><stop offset="0.593496" stop-color="#E5C19E"/><stop offset="0.597561" stop-color="#E5C19C"/><stop offset="0.601626" stop-color="#E5C09B"/><stop offset="0.605691" stop-color="#E5BF9A"/><stop offset="0.609756" stop-color="#E5BE99"/><stop offset="0.613821" stop-color="#E4BE98"/><stop offset="0.617886" stop-color="#E4BD96"/><stop offset="0.621951" stop-color="#E4BC95"/><stop offset="0.626016" stop-color="#E4BB94"/><stop offset="0.630081" stop-color="#E4BB93"/><stop offset="0.634146" stop-color="#E3BA91"/><stop offset="0.638211" stop-color="#E3B990"/><stop offset="0.642276" stop-color="#E3B88F"/><stop offset="0.646341" stop-color="#E3B88E"/><stop offset="0.650406" stop-color="#E3B78C"/><stop offset="0.654472" stop-color="#E2B68B"/><stop offset="0.658537" stop-color="#E2B58A"/><stop offset="0.662602" stop-color="#E2B588"/><stop offset="0.666667" stop-color="#E2B487"/><stop offset="0.670732" stop-color="#E2B386"/><stop offset="0.674797" stop-color="#E1B284"/><stop offset="0.678862" stop-color="#E1B183"/><stop offset="0.682927" stop-color="#E1B182"/><stop offset="0.686992" stop-color="#E1B080"/><stop offset="0.691057" stop-color="#E0AF7F"/><stop offset="0.695122" stop-color="#E0AE7E"/><stop offset="0.699187" stop-color="#E0AD7C"/><stop offset="0.703252" stop-color="#E0AD7B"/><stop offset="0.707317" stop-color="#E0AC79"/><stop offset="0.711382" stop-color="#DFAB78"/><stop offset="0.715447" stop-color="#DFAA77"/><stop offset="0.719512" stop-color="#DFA975"/><stop offset="0.723577" stop-color="#DFA874"/><stop offset="0.727642" stop-color="#DEA872"/><stop offset="0.731707" stop-color="#DEA771"/><stop offset="0.735772" stop-color="#DEA670"/><stop offset="0.739837" stop-color="#DEA56E"/><stop offset="0.743902" stop-color="#DEA46D"/><stop offset="0.747967" stop-color="#DDA36B"/><stop offset="0.752033" stop-color="#DDA26A"/><stop offset="0.756098" stop-color="#DDA168"/><stop offset="0.760163" stop-color="#DDA167"/><stop offset="0.764228" stop-color="#DCA065"/><stop offset="0.768293" stop-color="#DC9F64"/><stop offset="0.772358" stop-color="#DC9E62"/><stop offset="0.776423" stop-color="#DC9D61"/><stop offset="0.780488" stop-color="#DB9C5F"/><stop offset="0.784553" stop-color="#DB9B5E"/><stop offset="0.788618" stop-color="#DB9A5C"/><stop offset="0.792683" stop-color="#DB995B"/><stop offset="0.796748" stop-color="#DA9859"/><stop offset="0.800813" stop-color="#DA9858"/><stop offset="0.804878" stop-color="#DA9756"/><stop offset="0.808943" stop-color="#DA9655"/><stop offset="0.813008" stop-color="#D99553"/><stop offset="0.817073" stop-color="#D99451"/><stop offset="0.821138" stop-color="#D99350"/><stop offset="0.825203" stop-color="#D9924E"/><stop offset="0.829268" stop-color="#D8914D"/><stop offset="0.833333" stop-color="#D8904B"/><stop offset="0.837398" stop-color="#D88F49"/><stop offset="0.841463" stop-color="#D88E48"/><stop offset="0.845528" stop-color="#D78D46"/><stop offset="0.849594" stop-color="#D78C45"/><stop offset="0.853659" stop-color="#D78B43"/><stop offset="0.857724" stop-color="#D78A41"/><stop offset="0.861789" stop-color="#D68940"/><stop offset="0.865854" stop-color="#D6883E"/><stop offset="0.869919" stop-color="#D6873C"/><stop offset="0.873984" stop-color="#D5863B"/><stop offset="0.878049" stop-color="#D58539"/><stop offset="0.882114" stop-color="#D58437"/><stop offset="0.886179" stop-color="#D58336"/><stop offset="0.890244" stop-color="#D48234"/><stop offset="0.894309" stop-color="#D48132"/><stop offset="0.898374" stop-color="#D48030"/><stop offset="0.902439" stop-color="#D47F2F"/><stop offset="0.906504" stop-color="#D37E2D"/><stop offset="0.910569" stop-color="#D37D2B"/><stop offset="0.914634" stop-color="#D37C2A"/><stop offset="0.918699" stop-color="#D27B28"/><stop offset="0.922764" stop-color="#D27A26"/><stop offset="0.926829" stop-color="#D27924"/><stop offset="0.930894" stop-color="#D27823"/><stop offset="0.934959" stop-color="#D17721"/><stop offset="0.939024" stop-color="#D1761F"/><stop offset="0.943089" stop-color="#D1751D"/><stop offset="0.947154" stop-color="#D0741B"/><stop offset="0.951219" stop-color="#D0731A"/><stop offset="0.955285" stop-color="#D07218"/><stop offset="0.95935" stop-color="#CF7116"/><stop offset="0.963415" stop-color="#CF6F14"/><stop offset="0.96748" stop-color="#CF6E12"/><stop offset="0.971545" stop-color="#CF6D11"/><stop offset="0.97561" stop-color="#CE6C0F"/><stop offset="0.979675" stop-color="#CE6B0D"/><stop offset="0.98374" stop-color="#CE6A0B"/><stop offset="0.987805" stop-color="#CD6909"/><stop offset="0.99187" stop-color="#CD6807"/><stop offset="0.995935" stop-color="#CD6705"/><stop offset="1" stop-color="#CD6604"/></linearGradient></defs><g><rect x="0" y="0" width="1280" height="720" fill="#000000" fill-opacity="0.211765"/><path d="M1106.6 291.686C1104.18 291.686 1101.7 292.077 1099.19 292.858 1096.67 293.638 1094.11 294.029 1091.51 294.029 1089.08 294.029 1086.61 293.812 1084.09 293.378 1081.58 292.944 1079.1 292.727 1076.68 292.727 1074.25 292.727 1072.08 293.205 1070.17 294.159 1068.26 295.113 1066.96 296.891 1066.27 299.494L1040.24 299.494C1040.59 301.229 1040.76 302.791 1040.76 304.179 1040.76 308.169 1039.24 312.203 1036.21 316.28 1033.17 320.358 1029.83 324.869 1026.19 329.814 1022.54 334.758 1019.2 340.18 1016.17 346.079 1013.13 351.979 1011.61 358.572 1011.61 365.859 1011.61 368.288 1011.96 370.587 1012.65 372.755 1013.35 374.924 1014.08 377.136 1014.87 379.392 1015.65 381.648 1016.38 383.946 1017.08 386.289 1017.77 388.631 1018.12 391.103 1018.12 393.706 1018.12 397.523 1018.25 400.039 1018.51 401.253 1018.77 402.468 1019.25 403.249 1019.94 403.596 1020.63 403.943 1021.63 404.29 1022.93 404.637 1024.23 404.984 1025.93 406.198 1028.01 408.28 1029.74 410.015 1031.22 411.967 1032.43 414.136 1033.65 416.305 1034.9 418.43 1036.21 420.512 1037.51 422.594 1039.03 424.416 1040.76 425.977 1042.5 427.539 1044.75 428.58 1047.53 429.1 1048.05 429.274 1049.13 429.925 1050.78 431.052 1052.43 432.18 1054.21 433.481 1056.12 434.956 1058.02 436.431 1059.85 437.862 1061.58 439.25 1063.32 440.638 1064.53 441.593 1065.22 442.113 1065.92 443.501 1068.22 444.629 1072.12 445.496 1076.03 446.364 1080.36 447.058 1085.13 447.578 1089.91 448.099 1094.55 448.446 1099.06 448.62 1103.57 448.793 1106.69 448.88 1108.43 448.88 1115.54 448.88 1120.96 448.142 1124.69 446.668 1128.42 445.193 1131.59 443.284 1134.19 440.942 1136.79 438.6 1139.4 435.997 1142 433.134 1144.6 430.272 1148.33 427.452 1153.19 424.676 1157.7 422.247 1161.78 419.037 1165.42 415.047 1169.07 411.056 1172.19 406.632 1174.79 401.774 1177.39 396.916 1179.39 391.841 1180.78 386.549 1182.17 381.257 1182.86 376.095 1182.86 371.064 1182.86 366.553 1182.21 361.608 1180.91 356.229 1179.61 350.851 1177.78 345.602 1175.44 340.484 1173.1 335.366 1170.32 330.594 1167.11 326.17 1163.9 321.746 1160.48 318.146 1156.83 315.37 1154.23 313.461 1150.76 311.162 1146.42 308.473 1142.09 305.784 1137.49 303.181 1132.63 300.665 1127.77 298.149 1123.04 296.024 1118.45 294.289 1113.85 292.554 1109.9 291.686 1106.6 291.686ZM496.605 291.686C494.176 291.686 491.703 292.077 489.188 292.858 486.672 293.638 484.113 294.029 481.51 294.029 479.081 294.029 476.609 293.812 474.093 293.378 471.577 292.944 469.105 292.727 466.676 292.727 464.247 292.727 462.078 293.205 460.169 294.159 458.261 295.113 456.959 296.891 456.265 299.494L430.24 299.494C430.587 301.229 430.761 302.791 430.761 304.179 430.761 308.169 429.242 312.203 426.206 316.28 423.17 320.358 419.83 324.869 416.186 329.814 412.543 334.758 409.203 340.18 406.167 346.079 403.13 351.979 401.612 358.572 401.612 365.859 401.612 368.288 401.959 370.587 402.653 372.755 403.347 374.924 404.085 377.136 404.865 379.392 405.646 381.648 406.383 383.946 407.077 386.289 407.771 388.631 408.118 391.103 408.118 393.706 408.118 397.523 408.249 400.039 408.509 401.253 408.769 402.468 409.246 403.249 409.94 403.596 410.634 403.943 411.632 404.29 412.933 404.637 414.234 404.984 415.926 406.198 418.008 408.28 419.743 410.015 421.218 411.967 422.432 414.136 423.647 416.305 424.905 418.43 426.206 420.512 427.507 422.594 429.026 424.416 430.761 425.977 432.496 427.539 434.751 428.58 437.527 429.1 438.048 429.274 439.132 429.925 440.78 431.052 442.429 432.18 444.207 433.481 446.116 434.956 448.024 436.431 449.846 437.862 451.581 439.25 453.316 440.638 454.53 441.593 455.224 442.113 455.918 443.501 458.217 444.629 462.121 445.496 466.025 446.364 470.362 447.058 475.134 447.578 479.905 448.099 484.546 448.446 489.057 448.62 493.568 448.793 496.692 448.88 498.427 448.88 505.54 448.88 510.962 448.142 514.692 446.668 518.423 445.193 521.589 443.284 524.192 440.942 526.794 438.6 529.397 435.997 531.999 433.134 534.602 430.272 538.332 427.452 543.19 424.676 547.701 422.247 551.779 419.037 555.422 415.047 559.066 411.056 562.189 406.632 564.791 401.774 567.394 396.916 569.389 391.841 570.777 386.549 572.165 381.257 572.859 376.095 572.859 371.064 572.859 366.553 572.209 361.608 570.907 356.229 569.606 350.851 567.784 345.602 565.442 340.484 563.1 335.366 560.324 330.594 557.114 326.17 553.904 321.746 550.477 318.146 546.834 315.37 544.231 313.461 540.761 311.162 536.424 308.473 532.086 305.784 527.488 303.181 522.63 300.665 517.772 298.149 513.044 296.024 508.446 294.289 503.849 292.554 499.901 291.686 496.605 291.686ZM222.356 142.821 222.204 144.947 222.226 144.903C222.312 144.903 222.356 144.816 222.356 144.643L222.356 142.821C223.05 142.821 223.397 143.255 223.397 144.122 223.397 144.99 223.137 145.771 222.616 146.465L222.174 145.361 222.096 146.465C221.749 149.067 222.182 151.496 223.397 153.752 224.611 156.007 226.693 157.309 229.643 157.656 230.163 155.574 230.988 153.578 232.115 151.67 233.243 149.761 233.807 147.679 233.807 145.424L233.547 142.821ZM174.99 127.987 179.154 128.247C193.728 128.941 205.873 130.156 215.589 131.891 225.305 133.626 233.807 136.575 241.094 140.739 248.381 144.903 255.061 150.716 261.134 158.176 267.206 165.637 274.06 175.353 281.694 187.325 283.429 190.274 284.947 193.527 286.248 197.084 287.549 200.641 289.762 203.547 292.885 205.803 290.803 210.14 289.545 214.608 289.111 219.206 288.677 223.804 288.287 228.445 287.94 233.129 287.766 236.252 287.376 238.985 286.769 241.327 286.161 243.67 285.424 245.882 284.556 247.964 283.689 250.046 282.691 252.128 281.564 254.21 280.436 256.292 279.265 258.721 278.05 261.497 277.183 263.406 276.575 265.01 276.228 266.312 275.881 267.613 275.491 268.871 275.057 270.085 274.623 271.3 273.973 272.384 273.105 273.339 272.238 274.293 270.763 275.29 268.681 276.331 266.599 277.546 265.124 278.934 264.257 280.495 263.389 282.057 262.695 283.662 262.175 285.31 261.654 286.958 261.003 288.52 260.223 289.995 259.442 291.47 258.011 292.554 255.929 293.248 251.764 294.983 247.817 297.239 244.087 300.015 240.357 302.791 236.713 305.653 233.156 308.603 229.6 311.552 225.999 314.328 222.356 316.931 218.712 319.534 214.722 321.355 210.384 322.396 205.526 323.611 200.928 325.433 196.591 327.862 192.253 330.291 188.002 332.807 183.838 335.409 179.674 338.012 175.467 340.527 171.216 342.956 166.965 345.385 162.411 347.207 157.553 348.422 155.644 348.942 154.082 349.68 152.868 350.634 151.653 351.588 150.612 352.716 149.745 354.017 148.877 355.318 148.01 356.663 147.142 358.051 146.275 359.439 145.234 360.74 144.019 361.955 142.111 363.864 140.332 365.078 138.684 365.599 137.036 366.119 135.344 366.553 133.609 366.9 131.874 367.247 130.096 367.897 128.274 368.852 126.452 369.806 124.5 371.758 122.418 374.707 121.377 376.269 119.989 377.483 118.254 378.351 116.519 379.219 114.871 380.086 113.309 380.953 111.748 381.821 110.403 382.819 109.275 383.946 108.148 385.074 107.584 386.679 107.584 388.761 107.584 390.323 107.193 391.667 106.413 392.795 105.632 393.923 104.808 395.051 103.94 396.178 103.073 397.306 102.249 398.434 101.468 399.562 100.687 400.689 100.297 401.947 100.297 403.335 100.297 404.203 100.47 405.244 100.817 406.458 101.164 407.673 101.902 408.931 103.029 410.232 104.157 411.533 105.675 412.618 107.584 413.485 109.492 414.353 112.008 414.786 115.131 414.786 118.254 414.786 121.377 414.526 124.5 414.006 127.623 413.485 130.746 413.225 133.869 413.225 136.472 413.225 138.944 413.615 141.287 414.396 143.629 415.177 145.928 416.001 148.183 416.869 150.439 417.736 152.695 418.56 154.95 419.341 157.206 420.122 159.461 420.512 161.717 420.512 166.054 420.512 168.917 418.17 170.305 413.485 170.999 413.832 171.52 414.786 171.867 416.348 172.214 417.91 172.517 419.514 172.777 421.163 173.038 422.811 173.341 424.373 173.688 425.847 174.035 427.322 174.469 428.059 174.99 428.059 176.204 427.365 177.072 426.194 177.592 424.546 178.113 422.898 179.24 422.074 180.975 422.074 182.016 422.074 183.014 422.594 183.968 423.635 184.923 424.676 185.964 425.804 187.091 427.018 188.219 428.233 189.52 429.361 190.995 430.402 192.47 431.443 194.248 431.963 196.33 431.963 199.8 431.963 203.574 433.308 207.651 435.997 211.729 438.687 215.936 441.636 220.274 444.846 224.611 448.056 228.992 451.005 233.417 453.694 237.841 456.384 242.135 457.728 246.299 457.728 250.81 457.728 254.584 456.731 257.62 454.735 260.656 452.74 263.389 450.268 265.818 447.318 268.247 444.369 270.459 441.116 272.455 437.559 274.45 434.002 276.575 430.749 278.831 427.799 281.086 424.85 283.689 422.377 286.638 420.382 289.588 418.387 293.145 417.389 297.309 417.389 303.902 417.389 308.196 419.081 310.191 422.464 312.187 425.847 313.184 430.402 313.184 436.127 313.184 439.25 312.794 442.634 312.013 446.277 311.232 449.921 309.541 452.784 306.938 454.866 306.071 455.733 305.247 456.948 304.466 458.509 303.685 460.071 302.991 461.632 302.384 463.194 301.777 464.755 301.169 466.143 300.562 467.358 299.955 468.572 299.391 469.18 298.87 469.18 298.176 469.18 297.526 469.049 296.918 468.789 296.311 468.529 295.574 468.312 294.706 468.139L292.885 469.18C290.803 471.782 287.853 474.341 284.036 476.857 280.219 479.373 276.142 481.628 271.804 483.624 267.466 485.619 263.085 487.224 258.661 488.438 254.237 489.653 250.376 490.26 247.08 490.26 244.477 490.26 242.309 489.957 240.574 489.349 238.839 488.742 237.407 488.048 236.279 487.267 235.152 486.486 234.197 485.749 233.417 485.055 232.636 484.361 231.725 484.014 230.684 484.014 228.602 484.014 226.563 484.665 224.568 485.966 222.573 487.267 220.881 487.918 219.493 487.918 218.625 487.918 218.105 487.441 217.931 486.486 217.758 485.532 216.717 484.708 214.808 484.014 211.859 482.973 208.606 481.412 205.049 479.329 201.492 477.247 197.892 475.122 194.248 472.953 190.605 470.784 187.135 468.876 183.838 467.228 180.542 465.579 177.766 464.755 175.51 464.755 174.816 464.755 173.168 463.628 170.565 461.372 167.963 459.116 164.84 456.601 161.196 453.825 157.553 451.049 153.562 448.533 149.224 446.277 144.887 444.022 140.549 442.894 136.212 442.894 131.354 442.894 127.537 444.369 124.761 447.318 121.985 450.268 119.903 453.825 118.514 457.989L116.953 457.989 116.172 457.989C113.917 457.989 111.921 458.683 110.186 460.071 108.451 461.459 107.02 463.194 105.892 465.276 104.764 467.358 103.94 469.57 103.42 471.912 102.899 474.255 102.639 476.467 102.639 478.549 102.639 481.498 102.856 484.491 103.29 487.527 103.723 490.564 103.94 493.557 103.94 496.506 103.94 497.547 103.94 498.588 103.94 499.629 103.94 500.67 103.854 501.625 103.68 502.492 101.598 501.972 99.4292 501.711 97.1737 501.711 94.9181 501.711 92.7493 501.928 90.6673 502.362 88.5853 502.796 86.4165 503.013 84.161 503.013 80.6909 503.013 78.1751 501.972 76.6136 499.89 75.0521 497.807 73.7508 495.378 72.7098 492.602 71.3218 489.132 69.5 485.749 67.2445 482.453 64.9889 479.156 62.69 475.859 60.3477 472.563 58.0054 469.266 56.0102 465.97 54.3619 462.673 52.7136 459.377 51.8895 455.993 51.8895 452.523 51.8895 448.186 52.063 443.848 52.41 439.511 52.757 435.173 52.9305 430.749 52.9305 426.238 52.9305 422.594 53.8414 419.471 55.6632 416.869 57.4849 414.266 59.4802 411.577 61.649 408.801 63.8178 406.025 65.813 402.902 67.6348 399.432 69.4566 395.961 70.3675 391.537 70.3675 386.159 70.3675 384.771 70.7145 383.686 71.4085 382.905 72.1025 382.125 72.8833 381.301 73.7508 380.433 75.6593 378.871 77.9582 376.095 80.6475 372.105 83.3368 368.114 86.3297 363.69 89.6263 358.832 92.9228 353.974 96.4363 349.029 100.167 343.997 103.897 338.966 107.757 334.628 111.748 330.985 112.789 329.944 113.656 329.25 114.35 328.903 115.044 328.556 115.825 328.382 116.693 328.382 117.56 328.382 118.428 328.469 119.295 328.642 120.163 328.816 121.204 328.903 122.418 328.903 124.153 328.903 125.411 328.642 126.192 328.122 126.973 327.601 127.58 326.951 128.014 326.17 128.447 325.389 128.838 324.565 129.185 323.698 129.532 322.83 130.226 321.963 131.267 321.095 133.002 319.707 135.344 319.1 138.294 319.273 141.243 319.447 143.933 319.013 146.362 317.972 148.097 317.105 149.745 316.107 151.306 314.979 152.868 313.851 154.386 312.724 155.861 311.596 157.336 310.468 158.897 309.427 160.546 308.473 162.194 307.518 163.972 306.781 165.881 306.261 172.3 304.526 178.72 302.227 185.139 299.364 191.559 296.501 197.675 293.118 203.487 289.214 209.3 285.31 214.635 280.886 219.493 275.941 224.351 270.996 228.428 265.574 231.725 259.675 232.245 258.634 233.07 257.42 234.197 256.032 235.325 254.644 236.453 253.212 237.581 251.737 238.708 250.263 239.663 248.788 240.443 247.313 241.224 245.838 241.615 244.58 241.615 243.539 241.615 242.498 241.441 241.501 241.094 240.547 240.747 239.592 240.574 238.595 240.574 237.554 240.574 236.339 241.007 235.472 241.875 234.951 242.742 234.431 243.697 233.91 244.738 233.39 246.473 232.696 247.904 231.568 249.032 230.006 250.16 228.445 251.027 226.753 251.634 224.931 252.242 223.11 252.675 221.158 252.936 219.076 253.196 216.994 253.326 215.085 253.326 213.35 253.326 211.615 253.196 209.706 252.936 207.624 252.675 205.542 252.242 203.547 251.634 201.639 251.027 199.73 250.116 197.952 248.902 196.303 247.687 194.655 246.212 193.484 244.477 192.79 243.957 192.443 243.219 192.096 242.265 191.749 241.311 191.402 240.834 190.795 240.834 189.927 240.834 189.233 241.007 188.583 241.354 187.975 241.701 187.368 241.875 186.717 241.875 186.023 241.875 184.809 241.224 183.551 239.923 182.25 238.622 180.948 237.06 179.647 235.238 178.346 233.417 177.045 231.638 175.743 229.903 174.442 228.168 173.141 226.954 171.796 226.26 170.408 225.392 169.02 223.31 167.328 220.014 165.333 216.717 163.338 213.117 161.429 209.213 159.608 205.309 157.786 201.535 156.224 197.892 154.923 194.248 153.622 191.646 152.971 190.084 152.971 184.012 152.971 178.199 154.055 172.647 156.224 167.095 158.393 161.37 160.085 155.471 161.299 151.306 162.167 145.754 162.991 138.814 163.772 131.874 164.552 125.151 165.897 118.645 167.806 112.138 169.714 106.499 172.49 101.728 176.134 96.9568 179.777 94.5711 184.809 94.5711 191.228 94.5711 194.178 95.4386 196.911 97.1737 199.426 98.9087 201.942 101.077 204.458 103.68 206.974 106.283 209.49 109.145 211.962 112.268 214.391 115.391 216.82 118.254 219.423 120.857 222.199 123.459 224.975 125.628 227.881 127.363 230.917 129.098 233.953 129.966 237.293 129.966 240.937 129.966 245.448 128.534 249.308 125.671 252.518 122.809 255.728 119.339 258.374 115.261 260.456 111.184 262.538 106.846 264.056 102.249 265.01 97.6508 265.965 93.5301 266.442 89.8865 266.442 85.549 266.442 81.5584 265.835 77.9149 264.62 75.4858 263.926 73.6207 263.449 72.3194 263.189 71.0181 262.928 69.9771 262.581 69.1964 262.148 68.4156 261.714 67.8517 260.933 67.5047 259.805 67.1577 258.678 66.724 256.812 66.2034 254.21 65.6829 251.26 64.8154 248.614 63.6009 246.272 62.3864 243.93 61.2152 241.588 60.0875 239.245 58.9597 236.903 57.9621 234.474 57.0946 231.958 56.227 229.442 55.7933 226.536 55.7933 223.24 55.7933 219.249 56.7909 214.304 58.7862 208.405 60.7815 202.506 63.2539 196.52 66.2034 190.448 69.153 184.375 72.3194 178.693 75.7027 173.401 79.086 168.109 82.2524 164.075 85.202 161.299 86.4165 160.085 87.3708 158.74 88.0648 157.265 88.7588 155.791 89.4962 154.402 90.2769 153.101 91.0577 151.8 92.0553 150.716 93.2699 149.848 94.4844 148.981 96.3061 148.547 98.7352 148.547L103.42 148.547C105.849 148.547 107.844 148.2 109.406 147.506 110.967 146.812 112.182 145.25 113.049 142.821 113.57 141.26 114.784 140.045 116.693 139.178 118.601 138.31 120.683 137.703 122.939 137.356 125.194 137.009 127.493 136.749 129.836 136.575 132.178 136.402 134.043 136.315 135.431 136.315 138.901 136.141 142.241 135.621 145.451 134.753 148.661 133.886 151.914 132.932 155.21 131.891 158.507 130.85 161.76 129.939 164.97 129.158 168.18 128.377 171.52 127.987 174.99 127.987ZM1107.91 113.673 1119.62 113.673C1123.09 113.673 1126.43 113.716 1129.64 113.803 1132.85 113.89 1135.49 114.02 1137.57 114.193 1140.18 114.54 1142.65 115.061 1144.99 115.755 1147.33 116.449 1149.63 117.186 1151.89 117.967 1154.14 118.748 1156.44 119.442 1158.79 120.049 1161.13 120.656 1163.69 120.96 1166.46 120.96 1168.55 120.96 1169.76 121.394 1170.11 122.261 1170.45 123.129 1170.71 124.083 1170.89 125.124 1171.06 126.165 1171.41 127.119 1171.93 127.987 1172.45 128.854 1173.92 129.288 1176.35 129.288 1177.39 129.288 1178.39 129.158 1179.35 128.898 1180.3 128.637 1181.38 128.507 1182.6 128.507 1183.81 128.507 1184.72 128.941 1185.33 129.809 1185.94 130.676 1186.46 131.587 1186.89 132.541 1187.33 133.495 1187.72 134.406 1188.06 135.274 1188.41 136.141 1188.84 136.575 1189.37 136.575 1189.89 136.575 1190.49 136.445 1191.19 136.185 1191.88 135.924 1192.75 135.794 1193.79 135.794 1195.18 135.794 1196.13 136.228 1196.65 137.096 1197.17 137.963 1197.56 139.004 1197.82 140.219 1198.08 141.433 1198.3 142.691 1198.47 143.992 1198.65 145.294 1199.08 146.378 1199.78 147.246 1202.55 150.542 1204.98 153.275 1207.06 155.443 1209.14 157.612 1210.92 159.868 1212.4 162.21 1213.87 164.552 1214.96 167.242 1215.65 170.278 1216.35 173.314 1216.69 177.348 1216.69 182.38 1216.69 186.891 1216.08 191.185 1214.87 195.262 1213.66 199.34 1212.05 203.287 1210.06 207.104 1208.06 210.921 1205.85 214.651 1203.42 218.295 1200.99 221.938 1198.56 225.495 1196.13 228.965 1192.84 227.23 1189.28 226.363 1185.46 226.363 1182.69 226.363 1180 226.58 1177.39 227.013 1174.79 227.447 1172.19 227.664 1169.59 227.664 1165.77 227.664 1162.21 226.796 1158.92 225.061 1157.7 222.459 1156.31 219.9 1154.75 217.384 1153.19 214.868 1151.67 212.309 1150.2 209.706 1148.72 207.104 1147.51 204.415 1146.55 201.639 1145.6 198.863 1145.12 196 1145.12 193.05 1145.12 190.621 1145.47 188.279 1146.16 186.023 1146.86 183.768 1147.64 181.556 1148.51 179.387 1149.37 177.218 1150.15 175.006 1150.85 172.75 1151.54 170.495 1151.89 168.153 1151.89 165.724 1151.89 161.386 1149.63 159.044 1145.12 158.697 1140.44 158.35 1135.75 157.656 1131.07 156.615 1126.38 155.574 1121.79 155.053 1117.28 155.053 1112.24 155.053 1107.56 156.181 1103.22 158.436 1103.05 154.099 1102.27 151.193 1100.88 149.718 1099.49 148.243 1097.84 147.376 1095.93 147.115 1094.03 146.855 1092.07 146.812 1090.08 146.985 1088.08 147.159 1086.3 146.725 1084.74 145.684 1085.09 146.031 1085.61 146.465 1086.3 146.985 1087 147.506 1087.74 148.07 1088.52 148.677 1089.3 149.284 1089.99 149.891 1090.6 150.499 1091.21 151.106 1091.51 151.67 1091.51 152.19 1091.51 153.058 1090.73 153.578 1089.17 153.752 1087.61 153.925 1085.91 154.229 1084.09 154.663 1082.27 155.096 1080.58 155.791 1079.02 156.745 1077.46 157.699 1076.68 159.304 1076.68 161.559 1076.68 162.427 1076.72 163.164 1076.81 163.772 1076.89 164.379 1077.02 165.03 1077.2 165.724 1076.68 165.55 1075.72 165.463 1074.33 165.463 1072.77 165.463 1071.34 165.68 1070.04 166.114 1068.74 166.548 1067.44 167.068 1066.14 167.675 1064.83 168.283 1063.53 168.803 1062.23 169.237 1060.93 169.671 1059.41 169.888 1057.68 169.888 1056.46 169.888 1055.6 169.801 1055.07 169.627 1053.51 170.495 1052.52 171.276 1052.08 171.97 1051.65 172.664 1051.43 173.444 1051.43 174.312 1051.43 175.179 1051.52 176.09 1051.69 177.045 1051.86 177.999 1051.95 178.996 1051.95 180.038 1051.95 181.773 1051.56 183.204 1050.78 184.332 1050 185.459 1049 186.414 1047.79 187.194 1046.57 187.975 1045.27 188.713 1043.88 189.407 1042.5 190.101 1041.28 190.881 1040.24 191.749 1034.69 196.26 1029.87 201.769 1025.8 208.275 1021.72 214.781 1018.25 221.765 1015.39 229.225 1012.52 236.686 1010.4 244.277 1009.01 251.998 1007.62 259.719 1006.93 267.049 1006.93 273.989 1006.93 277.633 1007.62 280.192 1009.01 281.667 1010.4 283.141 1012.18 284.182 1014.34 284.79 1016.51 285.397 1018.9 285.831 1021.5 286.091 1024.1 286.351 1026.62 287.089 1029.05 288.303 1031.65 286.048 1033.6 283.879 1034.9 281.797 1036.21 279.715 1037.46 277.676 1038.68 275.681 1039.89 273.686 1041.45 271.864 1043.36 270.215 1045.27 268.567 1048.13 267.136 1051.95 265.921 1060.63 262.972 1069.69 260.499 1079.15 258.504 1088.6 256.509 1097.93 255.511 1107.13 255.511 1113.89 255.511 1120.62 256.465 1127.3 258.374 1133.97 260.282 1139.57 264.013 1144.08 269.565L1146.42 269.565C1149.55 269.565 1153.41 270.346 1158 271.907 1162.6 273.469 1167.24 275.421 1171.93 277.763 1176.61 280.105 1180.95 282.708 1184.94 285.57 1188.93 288.433 1191.79 291.166 1193.53 293.768 1194.4 295.156 1195.52 295.85 1196.91 295.85 1197.78 295.85 1198.56 295.764 1199.26 295.59 1199.95 295.417 1200.73 295.33 1201.6 295.33 1202.99 295.33 1203.68 296.024 1203.68 297.412 1203.68 297.932 1203.64 298.453 1203.55 298.974 1203.46 299.494 1203.42 299.928 1203.42 300.275 1203.42 303.051 1204.55 305.48 1206.8 307.562 1209.06 309.644 1211.49 311.813 1214.09 314.068 1216.69 316.324 1219.12 318.753 1221.38 321.355 1223.63 323.958 1224.76 327.081 1224.76 330.724 1224.76 335.062 1224.07 339.226 1222.68 343.217 1221.29 347.207 1220.6 351.285 1220.6 355.449 1220.6 359.439 1221.81 362.562 1224.24 364.818 1226.67 367.073 1229.62 368.722 1233.09 369.763 1231.01 374.794 1229.36 379.956 1228.14 385.248 1226.93 390.539 1225.84 395.875 1224.89 401.253 1223.94 406.632 1222.98 411.967 1222.03 417.259 1221.07 422.551 1219.82 427.799 1218.25 433.004 1213.05 435.433 1208.28 439.034 1203.94 443.805 1199.6 448.576 1195.26 453.347 1190.93 458.119 1186.59 462.89 1182.12 467.184 1177.52 471.001 1172.93 474.818 1167.76 476.9 1162.04 477.247 1156.14 477.768 1150.63 478.982 1145.51 480.891 1140.39 482.799 1135.32 484.795 1130.29 486.877 1125.26 488.959 1120.18 490.824 1115.06 492.472 1109.94 494.121 1104.52 494.945 1098.8 494.945 1096.72 494.945 1093.51 494.858 1089.17 494.684 1084.83 494.511 1080.45 494.077 1076.03 493.383 1071.6 492.689 1067.52 491.648 1063.79 490.26 1060.06 488.872 1057.76 487.05 1056.9 484.795 1056.03 482.713 1054.77 481.368 1053.12 480.761 1051.47 480.154 1049.7 479.763 1047.79 479.59 1045.88 479.416 1043.93 479.286 1041.93 479.199 1039.94 479.113 1038.16 478.549 1036.6 477.508 1034.34 476.12 1032.3 474.428 1030.48 472.433 1028.66 470.437 1026.88 468.399 1025.15 466.317 1023.41 464.235 1021.68 462.196 1019.94 460.201 1018.21 458.206 1016.3 456.514 1014.21 455.126 1011.96 453.738 1009.44 452.567 1006.67 451.612 1003.89 450.658 1001.46 449.4 999.38 447.839 998.513 447.145 997.949 446.234 997.689 445.106 997.428 443.978 997.081 442.851 996.648 441.723 996.214 440.595 995.693 439.554 995.086 438.6 994.479 437.645 993.481 436.995 992.093 436.648L991.833 434.306C991.833 430.662 992.614 427.192 994.175 423.895 995.737 420.599 996.517 417.129 996.517 413.485 996.517 411.577 995.953 409.668 994.826 407.76 993.698 405.851 992.353 403.943 990.792 402.034 989.23 400.126 987.669 398.217 986.107 396.308 984.546 394.4 983.418 392.405 982.724 390.323 981.336 387.026 980.121 383.383 979.08 379.392 978.039 375.401 976.131 372.192 973.355 369.763 970.579 367.16 969.191 363.777 969.191 359.613 969.191 357.184 969.364 354.841 969.711 352.586 970.058 350.33 970.232 347.988 970.232 345.559 970.232 342.783 969.668 340.31 968.54 338.142 967.412 335.973 966.849 333.674 966.849 331.245 966.849 329.51 967.586 328.165 969.061 327.211 970.535 326.257 971.967 325.606 973.355 325.259 973.355 323.698 973.008 322.483 972.314 321.616 971.62 320.748 970.882 320.054 970.102 319.534 969.321 319.013 968.627 318.579 968.02 318.232 967.412 317.885 967.109 317.452 967.109 316.931 967.976 315.196 969.234 313.504 970.882 311.856 972.531 310.208 973.355 308.516 973.355 306.781 973.355 304.873 972.531 303.138 970.882 301.576 969.234 300.015 968.41 298.28 968.41 296.371 968.41 295.85 968.627 295.547 969.061 295.46 969.494 295.373 970.015 295.287 970.622 295.2 971.229 295.113 971.793 294.853 972.314 294.419 972.834 293.985 973.181 293.161 973.355 291.947 974.569 281.884 976.001 272.081 977.649 262.538 979.297 252.995 981.249 243.279 983.505 233.39 983.852 231.308 984.155 229.182 984.416 227.013 984.676 224.845 984.806 222.632 984.806 220.377 984.806 219.336 984.806 218.295 984.806 217.254 984.806 216.213 984.719 215.172 984.546 214.131 987.495 211.702 990.488 207.798 993.524 202.419 996.561 197.041 999.51 191.619 1002.37 186.153 1005.24 180.688 1007.97 175.917 1010.57 171.839 1013.17 167.762 1015.52 165.724 1017.6 165.724 1019.51 165.724 1021.37 165.984 1023.19 166.504 1025.02 167.025 1026.88 167.285 1028.79 167.285 1029.31 167.285 1030.44 167.242 1032.17 167.155 1033.91 167.068 1034.86 166.591 1035.04 165.724 1034.51 164.856 1033.73 164.119 1032.69 163.511 1031.65 162.904 1030.61 162.253 1029.57 161.559 1028.53 160.865 1027.62 160.171 1026.84 159.477 1026.06 158.783 1025.67 157.916 1025.67 156.875 1025.67 156.007 1026.06 155.053 1026.84 154.012 1027.62 152.971 1028.57 151.93 1029.7 150.889 1030.83 149.848 1031.96 148.894 1033.08 148.026 1034.21 147.159 1035.04 146.465 1035.56 145.944 1039.89 142.301 1043.71 139.395 1047.01 137.226 1050.3 135.057 1053.56 133.235 1056.77 131.76 1059.98 130.286 1063.49 129.071 1067.31 128.117 1071.12 127.163 1075.72 126.165 1081.1 125.124 1082.66 124.777 1083.53 124.213 1083.7 123.432 1083.88 122.652 1084.09 121.871 1084.35 121.09 1084.61 120.309 1085.18 119.615 1086.04 119.008 1086.91 118.401 1088.82 118.097 1091.77 118.097 1094.72 118.097 1097.41 117.36 1099.84 115.885 1102.27 114.41 1104.96 113.673 1107.91 113.673ZM497.906 113.673 509.617 113.673C513.088 113.673 516.427 113.716 519.637 113.803 522.847 113.89 525.493 114.02 527.575 114.193 530.178 114.54 532.65 115.061 534.992 115.755 537.335 116.449 539.633 117.186 541.889 117.967 544.145 118.748 546.443 119.442 548.786 120.049 551.128 120.656 553.687 120.96 556.463 120.96 558.545 120.96 559.76 121.394 560.107 122.261 560.454 123.129 560.714 124.083 560.888 125.124 561.061 126.165 561.408 127.119 561.929 127.987 562.449 128.854 563.924 129.288 566.353 129.288 567.394 129.288 568.391 129.158 569.346 128.898 570.3 128.637 571.384 128.507 572.599 128.507 573.813 128.507 574.724 128.941 575.332 129.809 575.939 130.676 576.459 131.587 576.893 132.541 577.327 133.495 577.717 134.406 578.064 135.274 578.411 136.141 578.845 136.575 579.366 136.575 579.886 136.575 580.493 136.445 581.187 136.185 581.881 135.924 582.749 135.794 583.79 135.794 585.178 135.794 586.132 136.228 586.653 137.096 587.173 137.963 587.564 139.004 587.824 140.219 588.084 141.433 588.301 142.691 588.474 143.992 588.648 145.294 589.082 146.378 589.776 147.246 592.552 150.542 594.981 153.275 597.063 155.443 599.145 157.612 600.923 159.868 602.398 162.21 603.873 164.552 604.957 167.242 605.651 170.278 606.345 173.314 606.692 177.348 606.692 182.38 606.692 186.891 606.085 191.185 604.87 195.262 603.656 199.34 602.051 203.287 600.056 207.104 598.06 210.921 595.848 214.651 593.419 218.295 590.99 221.938 588.561 225.495 586.132 228.965 582.836 227.23 579.279 226.363 575.462 226.363 572.686 226.363 569.996 226.58 567.394 227.013 564.791 227.447 562.189 227.664 559.586 227.664 555.769 227.664 552.212 226.796 548.916 225.061 547.701 222.459 546.313 219.9 544.752 217.384 543.19 214.868 541.672 212.309 540.197 209.706 538.723 207.104 537.508 204.415 536.554 201.639 535.599 198.863 535.122 196 535.122 193.05 535.122 190.621 535.469 188.279 536.163 186.023 536.857 183.768 537.638 181.556 538.506 179.387 539.373 177.218 540.154 175.006 540.848 172.75 541.542 170.495 541.889 168.153 541.889 165.724 541.889 161.386 539.633 159.044 535.122 158.697 530.438 158.35 525.753 157.656 521.069 156.615 516.384 155.574 511.786 155.053 507.275 155.053 502.244 155.053 497.559 156.181 493.221 158.436 493.048 154.099 492.267 151.193 490.879 149.718 489.491 148.243 487.843 147.376 485.934 147.115 484.026 146.855 482.074 146.812 480.079 146.985 478.083 147.159 476.305 146.725 474.743 145.684 475.09 146.031 475.611 146.465 476.305 146.985 476.999 147.506 477.736 148.07 478.517 148.677 479.298 149.284 479.992 149.891 480.599 150.499 481.206 151.106 481.51 151.67 481.51 152.19 481.51 153.058 480.729 153.578 479.168 153.752 477.606 153.925 475.915 154.229 474.093 154.663 472.271 155.096 470.579 155.791 469.018 156.745 467.456 157.699 466.676 159.304 466.676 161.559 466.676 162.427 466.719 163.164 466.806 163.772 466.892 164.379 467.023 165.03 467.196 165.724 466.676 165.55 465.721 165.463 464.333 165.463 462.772 165.463 461.34 165.68 460.039 166.114 458.738 166.548 457.437 167.068 456.135 167.675 454.834 168.283 453.533 168.803 452.232 169.237 450.93 169.671 449.412 169.888 447.677 169.888 446.463 169.888 445.595 169.801 445.075 169.627 443.513 170.495 442.515 171.276 442.082 171.97 441.648 172.664 441.431 173.444 441.431 174.312 441.431 175.179 441.518 176.09 441.691 177.045 441.865 177.999 441.951 178.996 441.951 180.038 441.951 181.773 441.561 183.204 440.78 184.332 440 185.459 439.002 186.414 437.787 187.194 436.573 187.975 435.272 188.713 433.884 189.407 432.496 190.101 431.281 190.881 430.24 191.749 424.688 196.26 419.873 201.769 415.796 208.275 411.719 214.781 408.249 221.765 405.386 229.225 402.523 236.686 400.398 244.277 399.01 251.998 397.622 259.719 396.928 267.049 396.928 273.989 396.928 277.633 397.622 280.192 399.01 281.667 400.398 283.141 402.176 284.182 404.345 284.79 406.514 285.397 408.899 285.831 411.502 286.091 414.104 286.351 416.62 287.089 419.049 288.303 421.652 286.048 423.604 283.879 424.905 281.797 426.206 279.715 427.464 277.676 428.678 275.681 429.893 273.686 431.455 271.864 433.363 270.215 435.272 268.567 438.134 267.136 441.951 265.921 450.627 262.972 459.692 260.499 469.148 258.504 478.604 256.509 487.93 255.511 497.125 255.511 503.892 255.511 510.615 256.465 517.295 258.374 523.975 260.282 529.57 264.013 534.081 269.565L536.424 269.565C539.547 269.565 543.407 270.346 548.005 271.907 552.603 273.469 557.244 275.421 561.929 277.763 566.613 280.105 570.951 282.708 574.941 285.57 578.932 288.433 581.795 291.166 583.53 293.768 584.397 295.156 585.525 295.85 586.913 295.85 587.78 295.85 588.561 295.764 589.255 295.59 589.949 295.417 590.73 295.33 591.597 295.33 592.985 295.33 593.679 296.024 593.679 297.412 593.679 297.932 593.636 298.453 593.549 298.974 593.463 299.494 593.419 299.928 593.419 300.275 593.419 303.051 594.547 305.48 596.802 307.562 599.058 309.644 601.487 311.813 604.09 314.068 606.692 316.324 609.121 318.753 611.377 321.355 613.632 323.958 614.76 327.081 614.76 330.724 614.76 335.062 614.066 339.226 612.678 343.217 611.29 347.207 610.596 351.285 610.596 355.449 610.596 359.439 611.81 362.562 614.24 364.818 616.669 367.073 619.618 368.722 623.088 369.763 621.006 374.794 619.358 379.956 618.143 385.248 616.929 390.539 615.844 395.875 614.89 401.253 613.936 406.632 612.982 411.967 612.027 417.259 611.073 422.551 609.815 427.799 608.254 433.004 603.049 435.433 598.277 439.034 593.94 443.805 589.602 448.576 585.265 453.347 580.927 458.119 576.589 462.89 572.122 467.184 567.524 471.001 562.926 474.818 557.764 476.9 552.039 477.247 546.14 477.768 540.631 478.982 535.513 480.891 530.394 482.799 525.319 484.795 520.288 486.877 515.256 488.959 510.181 490.824 505.063 492.472 499.945 494.121 494.523 494.945 488.797 494.945 486.715 494.945 483.505 494.858 479.168 494.684 474.83 494.511 470.449 494.077 466.025 493.383 461.601 492.689 457.523 491.648 453.793 490.26 450.063 488.872 447.764 487.05 446.896 484.795 446.029 482.713 444.771 481.368 443.123 480.761 441.474 480.154 439.696 479.763 437.787 479.59 435.879 479.416 433.927 479.286 431.932 479.199 429.936 479.113 428.158 478.549 426.596 477.508 424.341 476.12 422.302 474.428 420.481 472.433 418.659 470.437 416.88 468.399 415.145 466.317 413.41 464.235 411.675 462.196 409.94 460.201 408.205 458.206 406.297 456.514 404.215 455.126 401.959 453.738 399.443 452.567 396.667 451.612 393.891 450.658 391.462 449.4 389.38 447.839 388.513 447.145 387.949 446.234 387.689 445.106 387.428 443.978 387.081 442.851 386.647 441.723 386.214 440.595 385.693 439.554 385.086 438.6 384.479 437.645 383.481 436.995 382.093 436.648L381.833 434.306C381.833 430.662 382.614 427.192 384.175 423.895 385.737 420.599 386.517 417.129 386.517 413.485 386.517 411.577 385.953 409.668 384.826 407.76 383.698 405.851 382.353 403.943 380.792 402.034 379.23 400.126 377.669 398.217 376.107 396.308 374.546 394.4 373.418 392.405 372.724 390.323 371.336 387.026 370.121 383.383 369.08 379.392 368.039 375.401 366.131 372.192 363.355 369.763 360.579 367.16 359.191 363.777 359.191 359.613 359.191 357.184 359.364 354.841 359.711 352.586 360.058 350.33 360.232 347.988 360.232 345.559 360.232 342.783 359.668 340.31 358.54 338.142 357.412 335.973 356.848 333.674 356.848 331.245 356.848 329.51 357.586 328.165 359.061 327.211 360.535 326.257 361.967 325.606 363.355 325.259 363.355 323.698 363.008 322.483 362.314 321.616 361.62 320.748 360.882 320.054 360.102 319.534 359.321 319.013 358.627 318.579 358.02 318.232 357.412 317.885 357.109 317.452 357.109 316.931 357.976 315.196 359.234 313.504 360.882 311.856 362.531 310.208 363.355 308.516 363.355 306.781 363.355 304.873 362.531 303.138 360.882 301.576 359.234 300.015 358.41 298.28 358.41 296.371 358.41 295.85 358.627 295.547 359.061 295.46 359.494 295.373 360.015 295.287 360.622 295.2 361.229 295.113 361.793 294.853 362.314 294.419 362.834 293.985 363.181 293.161 363.355 291.947 364.569 281.884 366.001 272.081 367.649 262.538 369.297 252.995 371.249 243.279 373.505 233.39 373.852 231.308 374.155 229.182 374.416 227.013 374.676 224.845 374.806 222.632 374.806 220.377 374.806 219.336 374.806 218.295 374.806 217.254 374.806 216.213 374.719 215.172 374.546 214.131 377.495 211.702 380.488 207.798 383.524 202.419 386.561 197.041 389.51 191.619 392.373 186.153 395.236 180.688 397.969 175.917 400.571 171.839 403.174 167.762 405.516 165.724 407.598 165.724 409.506 165.724 411.372 165.984 413.193 166.504 415.015 167.025 416.88 167.285 418.789 167.285 419.309 167.285 420.437 167.242 422.172 167.155 423.907 167.068 424.861 166.591 425.035 165.724 424.514 164.856 423.734 164.119 422.693 163.511 421.652 162.904 420.611 162.253 419.57 161.559 418.529 160.865 417.618 160.171 416.837 159.477 416.056 158.783 415.666 157.916 415.666 156.875 415.666 156.007 416.056 155.053 416.837 154.012 417.618 152.971 418.572 151.93 419.7 150.889 420.827 149.848 421.955 148.894 423.083 148.026 424.211 147.159 425.035 146.465 425.555 145.944 429.893 142.301 433.71 139.395 437.007 137.226 440.303 135.057 443.556 133.235 446.766 131.76 449.976 130.286 453.489 129.071 457.306 128.117 461.123 127.163 465.721 126.165 471.1 125.124 472.661 124.777 473.529 124.213 473.702 123.432 473.876 122.652 474.093 121.871 474.353 121.09 474.613 120.309 475.177 119.615 476.045 119.008 476.912 118.401 478.821 118.097 481.77 118.097 484.72 118.097 487.409 117.36 489.838 115.885 492.267 114.41 494.956 113.673 497.906 113.673ZM781.196 99.0985C782.931 99.0985 784.276 99.7492 785.23 101.05 786.184 102.352 787.529 103.002 789.264 103.002 790.826 103.002 792.344 102.612 793.818 101.831 795.293 101.05 796.811 100.66 798.373 100.66 800.455 100.66 804.315 101.788 809.954 104.043 815.593 106.299 821.579 108.945 827.912 111.981 834.245 115.017 840.187 118.01 845.739 120.96 851.291 123.909 855.108 126.078 857.19 127.466 862.222 127.466 867.167 126.729 872.025 125.254 876.883 123.779 881.741 122.131 886.599 120.309 891.457 118.487 896.402 116.839 901.433 115.364 906.465 113.89 911.583 113.152 916.788 113.152 921.126 113.152 924.119 113.76 925.767 114.974 927.415 116.189 928.63 117.577 929.411 119.138 930.191 120.7 930.972 122.304 931.753 123.953 932.534 125.601 934.399 126.772 937.348 127.466 937.175 128.854 937.088 130.98 937.088 133.842 937.088 136.705 937.001 139.828 936.828 143.212 936.654 146.595 936.307 150.065 935.787 153.622 935.266 157.179 934.573 160.432 933.705 163.381 932.837 166.331 931.666 168.716 930.191 170.538 928.717 172.36 926.938 173.271 924.856 173.271 924.509 173.271 924.249 173.228 924.076 173.141 923.902 173.054 923.729 173.011 923.555 173.011 923.208 175.96 922.254 179.604 920.692 183.941 919.131 188.279 917.135 192.963 914.706 197.995 912.277 203.027 909.588 208.102 906.638 213.22 903.689 218.338 900.696 223.24 897.66 227.924 894.624 232.609 891.631 236.773 888.681 240.416 885.731 244.06 883.216 246.836 881.134 248.745 879.052 250.653 877.013 253.689 875.018 257.853 873.022 262.017 870.984 266.572 868.902 271.517 866.82 276.462 864.694 281.406 862.525 286.351 860.357 291.296 858.058 295.33 855.629 298.453 853.547 301.056 851.508 304.482 849.513 308.733 847.518 312.984 846.346 316.844 845.999 320.314L846.78 322.917C846.433 325.519 845.566 327.385 844.178 328.512 842.79 329.64 841.228 330.811 839.493 332.026 837.758 333.24 836.24 334.802 834.939 336.71 833.637 338.619 832.987 341.655 832.987 345.819 832.987 347.381 832.64 348.769 831.946 349.983 831.252 351.198 830.514 352.282 829.733 353.236 828.953 354.191 828.259 355.145 827.651 356.099 827.044 357.054 826.741 358.138 826.741 359.352 826.741 361.781 827.131 364.124 827.912 366.379 828.692 368.635 829.083 370.977 829.083 373.406 829.083 378.438 828.649 383.296 827.782 387.98 826.914 392.665 826.48 397.436 826.48 402.294 826.48 405.764 825.96 408.974 824.919 411.924 823.878 414.873 822.663 417.736 821.275 420.512 819.887 423.288 818.369 426.064 816.721 428.84 815.073 431.616 813.728 434.566 812.687 437.689 811.819 440.118 810.865 442.2 809.824 443.935 808.783 445.67 807.135 447.232 804.879 448.62 805.226 449.834 805.573 451.005 805.92 452.133 806.267 453.261 806.441 454.519 806.441 455.907 806.441 457.468 806.094 459.637 805.4 462.413 804.706 465.189 803.751 467.878 802.537 470.481 801.322 473.083 799.848 475.382 798.113 477.378 796.378 479.373 794.469 480.37 792.387 480.37 791.693 480.37 791.173 480.284 790.826 480.11 791.52 481.325 791.953 482.583 792.127 483.884 792.3 485.185 792.387 486.53 792.387 487.918 792.387 490.867 792.127 493.817 791.606 496.766 791.086 499.716 790.826 502.666 790.826 505.615L790.826 507.957 788.483 507.957C778.247 507.957 770.916 505.442 766.492 500.41 762.067 495.378 759.855 487.831 759.855 477.768 759.855 470.307 760.506 462.977 761.807 455.776 763.108 448.576 763.759 441.246 763.759 433.785 763.759 431.356 763.108 429.1 761.807 427.018 760.506 424.936 759.855 422.681 759.855 420.252 759.855 419.384 760.072 418.69 760.506 418.17 760.94 417.649 761.504 417.042 762.198 416.348 764.627 414.266 766.362 411.837 767.403 409.061 768.444 406.285 769.441 403.509 770.396 400.733 771.35 397.957 772.521 395.528 773.909 393.446 775.297 391.364 777.466 389.976 780.415 389.282L780.415 387.46C780.415 385.725 780.068 384.12 779.374 382.645 778.68 381.17 778.333 379.565 778.333 377.83 778.333 376.095 778.854 374.534 779.895 373.146 780.936 371.758 781.89 370.37 782.758 368.982 783.799 367.42 785.1 364.514 786.661 360.263 788.223 356.013 789.828 351.675 791.476 347.251 793.124 342.826 794.686 338.792 796.161 335.149 797.635 331.505 798.893 329.423 799.934 328.903 803.231 327.168 805.4 324.956 806.441 322.266 807.482 319.577 808.219 316.844 808.653 314.068 809.087 311.292 809.651 308.646 810.344 306.13 811.039 303.615 812.687 301.663 815.289 300.275 817.371 299.234 818.89 297.629 819.844 295.46 820.798 293.291 821.535 290.949 822.056 288.433 822.576 285.917 823.054 283.402 823.487 280.886 823.921 278.37 824.658 276.158 825.7 274.249 826.567 272.688 827.651 271.343 828.953 270.215 830.254 269.088 831.512 268.003 832.726 266.962 833.941 265.921 834.982 264.794 835.849 263.579 836.717 262.365 837.151 260.803 837.151 258.894L837.151 257.333C838.539 256.292 839.753 255.164 840.794 253.95 841.835 252.735 842.616 251.347 843.137 249.786 843.831 247.183 844.828 244.841 846.129 242.759 847.431 240.677 848.819 238.681 850.293 236.773 851.768 234.864 853.156 232.869 854.458 230.787 855.759 228.705 856.843 226.449 857.711 224.02 858.405 221.938 859.923 218.729 862.265 214.391 864.607 210.053 867.08 205.673 869.682 201.248 872.285 196.824 874.627 192.79 876.709 189.146 878.791 185.503 879.832 183.334 879.832 182.64 879.832 180.905 879.095 179.517 877.62 178.476 876.145 177.435 874.454 176.654 872.545 176.134 870.637 175.613 868.641 175.31 866.559 175.223 864.477 175.136 862.829 175.093 861.615 175.093 857.277 175.093 853.026 175.396 848.862 176.004 844.698 176.611 840.447 176.914 836.11 176.914 828.996 176.914 821.535 175.917 813.728 173.922 805.92 171.926 799.501 168.066 794.469 162.34 792.907 163.034 791.346 163.468 789.784 163.642 788.223 163.815 786.661 163.902 785.1 163.902 781.456 163.902 777.943 163.468 774.56 162.6 771.176 161.733 767.75 160.779 764.28 159.738 760.81 158.697 757.383 157.742 754 156.875 750.616 156.007 747.103 155.574 743.459 155.574 739.989 155.574 736.302 156.181 732.398 157.395 728.495 158.61 724.851 160.345 721.468 162.6 718.085 164.856 715.135 167.459 712.619 170.408 710.103 173.358 708.412 176.654 707.544 180.298 706.677 183.768 705.549 187.021 704.161 190.057 702.773 193.094 701.255 196.086 699.607 199.036 697.958 201.986 696.31 204.935 694.662 207.885 693.013 210.834 691.669 213.87 690.628 216.994 689.587 219.596 688.025 222.068 685.943 224.411 683.861 226.753 681.476 228.748 678.786 230.397 676.097 232.045 673.278 233.346 670.328 234.3 667.378 235.255 664.516 235.732 661.74 235.732 656.188 231.047 653.411 225.408 653.411 218.815 653.411 214.825 653.628 210.964 654.062 207.234 654.496 203.504 654.713 199.643 654.713 195.653 654.713 193.397 655.277 191.315 656.404 189.407 657.532 187.498 658.877 185.676 660.438 183.941 662 182.206 663.561 180.471 665.123 178.736 666.684 177.001 667.899 175.093 668.766 173.011 669.807 170.582 670.588 167.806 671.109 164.683 671.629 161.559 672.063 158.306 672.41 154.923 672.757 151.54 672.974 148.243 673.061 145.033 673.147 141.824 673.191 138.917 673.191 136.315 673.191 133.018 673.147 129.765 673.061 126.555 672.974 123.346 672.67 120.179 672.15 117.056 674.752 117.056 676.617 116.752 677.745 116.145 678.873 115.538 679.74 114.844 680.348 114.063 680.955 113.282 681.476 112.545 681.909 111.851 682.343 111.157 683.167 110.81 684.382 110.81 686.984 110.81 689.63 111.461 692.319 112.762 695.009 114.063 697.741 115.451 700.517 116.926 703.293 118.401 706.156 119.789 709.106 121.09 712.055 122.391 715.092 123.042 718.215 123.042 722.379 123.042 726.066 122.131 729.275 120.309 732.485 118.487 735.738 116.449 739.035 114.193 742.332 111.938 745.932 109.899 749.835 108.077 753.739 106.256 758.554 105.345 764.28 105.345 766.188 105.345 767.88 105.041 769.355 104.434 770.829 103.826 772.174 103.132 773.388 102.352 774.603 101.571 775.818 100.834 777.032 100.14 778.247 99.4455 779.635 99.0985 781.196 99.0985Z" fill="url(#fill0)" fill-rule="evenodd"/><text fill="#000000" fill-opacity="0" font-family="Arial,Arial_MSFontService,sans-serif" font-size="408.859" x="51.8895" y="456.85">2676</text></g></svg>